<svg viewBox = "0 0 88 88" width="88" height="88" xmlns="http://www.w3.org/2000/svg"><g transform="matrix(1 0 0 1 44 44)"  ><g style=""   ><g transform="matrix(1 0 0 1 -13.23 0.4)"  ><path style="stroke: none; stroke-width: 1; stroke-dasharray: none; stroke-linecap: butt; stroke-dashoffset: 0; stroke-linejoin: miter; stroke-miterlimit: 4; fill: rgb(99,106,232); fill-rule: nonzero; opacity: 1;"  transform=" translate(-30.77, -44.4)" d="M 7.78188 21.7294 C 2.73937 26.7018 2.73937 34.7856 7.78188 39.7581 L 35.4734 67.0651 C 40.516 72.0376 48.7136 72.0376 53.7561 67.0651 C 58.7986 62.0926 58.7986 54.0088 53.7561 49.0363 L 26.0645 21.7294 C 21.022 16.7569 12.8244 16.7569 7.78188 21.7294 Z" stroke-linecap="round" /></g><g transform="matrix(1 0 0 1 24.27 -6.55)"  ><path style="stroke: none; stroke-width: 1; stroke-dasharray: none; stroke-linecap: butt; stroke-dashoffset: 0; stroke-linejoin: miter; stroke-miterlimit: 4; fill: rgb(232,97,140); fill-rule: nonzero; opacity: 1;"  transform=" translate(-68.27, -37.45)" d="M 63.2547 56.6895 C 62.9307 52.0087 60.9447 47.6473 57.5361 44.286 C 50.5386 37.2884 50.7078 33.0857 57.5361 26.2573 C 57.5361 26.2573 57.1981 26.1045 62.1279 21.7154 C 67.0576 17.3263 75.368 16.7429 80.4105 21.7154 C 85.453 26.6879 85.453 34.7716 80.4105 39.7441 L 63.2406 56.6756 L 63.2547 56.6895 Z" stroke-linecap="round" /></g></g></g></svg>